<svg width="32" height="32" viewBox="0 0 32 32" fill="none" xmlns="http://www.w3.org/2000/svg">
<path id="alarm" d="M32 25.9048V27.4286H0V25.9048L3.55556 22.8571V13.7143C3.55556 8.99048 7.16444 4.83048 12.4444 3.48952V3.04762C12.4444 2.23934 12.819 1.46417 13.4858 0.892627C14.1526 0.321087 15.057 0 16 0C16.943 0 17.8474 0.321087 18.5142 0.892627C19.181 1.46417 19.5556 2.23934 19.5556 3.04762V3.48952C24.8356 4.83048 28.4444 8.99048 28.4444 13.7143V22.8571L32 25.9048ZM19.5556 28.9524C19.5556 29.7607 19.181 30.5358 18.5142 31.1074C17.8474 31.6789 16.943 32 16 32C15.057 32 14.1526 31.6789 13.4858 31.1074C12.819 30.5358 12.4444 29.7607 12.4444 28.9524" fill="white"/>
</svg>
