<svg width="42" height="42" viewBox="0 0 42 42" fill="none" xmlns="http://www.w3.org/2000/svg">
<g id="Component 4">
<g id="Vector" filter="url(#filter0_bd_168_12964)">
<path d="M34 25.9048V27.4286H2V25.9048L5.55556 22.8571V13.7143C5.55556 8.99048 9.16444 4.83048 14.4444 3.48952V3.04762C14.4444 2.23934 14.819 1.46417 15.4858 0.892627C16.1526 0.321087 17.057 0 18 0C18.943 0 19.8474 0.321087 20.5142 0.892627C21.181 1.46417 21.5556 2.23934 21.5556 3.04762V3.48952C26.8356 4.83048 30.4444 8.99048 30.4444 13.7143V22.8571L34 25.9048ZM21.5556 28.9524C21.5556 29.7607 21.181 30.5358 20.5142 31.1074C19.8474 31.6789 18.943 32 18 32C17.057 32 16.1526 31.6789 15.4858 31.1074C14.819 30.5358 14.4444 29.7607 14.4444 28.9524" fill="white"/>
</g>
<circle id="Ellipse 29" cx="36.5" cy="4.5" r="4.5" fill="#EFC638"/>
</g>
<defs>
<filter id="filter0_bd_168_12964" x="-16" y="-16" width="72" height="72" filterUnits="userSpaceOnUse" color-interpolation-filters="sRGB">
<feFlood flood-opacity="0" result="BackgroundImageFix"/>
<feGaussianBlur in="BackgroundImageFix" stdDeviation="10"/>
<feComposite in2="SourceAlpha" operator="in" result="effect1_backgroundBlur_168_12964"/>
<feColorMatrix in="SourceAlpha" type="matrix" values="0 0 0 0 0 0 0 0 0 0 0 0 0 0 0 0 0 0 127 0" result="hardAlpha"/>
<feOffset dy="4"/>
<feGaussianBlur stdDeviation="2"/>
<feComposite in2="hardAlpha" operator="out"/>
<feColorMatrix type="matrix" values="0 0 0 0 0 0 0 0 0 0 0 0 0 0 0 0 0 0 0.25 0"/>
<feBlend mode="normal" in2="effect1_backgroundBlur_168_12964" result="effect2_dropShadow_168_12964"/>
<feBlend mode="normal" in="SourceGraphic" in2="effect2_dropShadow_168_12964" result="shape"/>
</filter>
</defs>
</svg>
