<svg xmlns="http://www.w3.org/2000/svg" width="20" height="21" viewBox="0 0 20 21" fill="none">
  <path d="M19.7518 3.11848C17.5862 1.47912 14.2527 0.5 10.8341 0.5C6.60677 0.5 3.16185 1.9743 1.38431 4.54527C0.549363 5.75197 0.0874527 7.18251 0.0110935 8.79436C-0.0565032 10.2299 0.185092 11.818 0.728369 13.5261C2.58352 7.96905 7.76593 3.61867 13.7407 3.61867C13.7407 3.61867 8.15023 5.08797 4.63521 9.64093C3.83317 10.6733 3.18937 11.8192 2.72497 13.041C1.73223 15.4026 1.22153 17.9386 1.22283 20.5H3.72641C3.72641 20.5 3.34586 18.1116 4.00681 15.3656C4.98427 15.5049 5.96995 15.5788 6.95728 15.5869C9.25932 15.5869 10.8954 15.0892 12.1084 14.0213C13.1949 13.0647 13.7946 11.778 14.4292 10.4175C15.3981 8.33794 16.4959 5.98206 19.6842 4.16262C19.7742 4.11137 19.85 4.03862 19.9049 3.95089C19.9598 3.86317 19.992 3.76321 19.9987 3.65998C20.0054 3.55675 19.9863 3.45347 19.9433 3.3594C19.9002 3.26533 19.8344 3.18341 19.7518 3.12098V3.11848Z" fill="black"/>
</svg>