<svg xmlns="http://www.w3.org/2000/svg" width="16" height="19" viewBox="0 0 16 19" fill="none">
  <path d="M1 18L1.12575 1H15V18H1Z" stroke="black" stroke-linecap="round" stroke-linejoin="round"/>
  <path d="M3 5.5L4 6.5L5.5 5" stroke="black" stroke-width="0.5" stroke-linecap="round" stroke-linejoin="round"/>
  <path d="M3 9.5L4 10.5L5.5 9" stroke="black" stroke-width="0.5" stroke-linecap="round" stroke-linejoin="round"/>
  <path d="M3 13.5L4 14.5L5.5 13" stroke="black" stroke-width="0.5" stroke-linecap="round" stroke-linejoin="round"/>
  <path d="M9 5H13M9 6H13M9 7H11" stroke="black" stroke-width="0.5" stroke-linecap="round" stroke-linejoin="round"/>
  <path d="M9 9H13M9 10H13M9 11H11" stroke="black" stroke-width="0.5" stroke-linecap="round" stroke-linejoin="round"/>
  <path d="M9 13H13M9 14H13M9 15H11" stroke="black" stroke-width="0.5" stroke-linecap="round" stroke-linejoin="round"/>
  <path d="M5 3V1H11V3H5Z" fill="black" stroke="black" stroke-linecap="round" stroke-linejoin="round"/>
  <path d="M10.4815 2C10.4815 2.27614 10.2577 2.5 9.98153 2.5C9.70538 2.5 9.48153 2.27614 9.48153 2C9.48153 1.72386 9.70538 1.5 9.98153 1.5C10.2577 1.5 10.4815 1.72386 10.4815 2Z" fill="white"/>
  <path d="M7 2C7 2.27614 6.77614 2.5 6.5 2.5C6.22386 2.5 6 2.27614 6 2C6 1.72386 6.22386 1.5 6.5 1.5C6.77614 1.5 7 1.72386 7 2Z" fill="white"/>
</svg>