<svg xmlns="http://www.w3.org/2000/svg" width="20" height="21" viewBox="0 0 20 21" fill="none">
  <path d="M18.1 6.45L14.5 8.25M14.5 8.25L14.05 8.475L10 10.5M14.5 8.25V11.4M14.5 8.25L5.95 3.75M10 10.5L1.9 6.45M10 10.5V19.05M13.2202 2.7438L15.0202 3.6888C16.9561 4.7049 17.9245 5.2125 18.4627 6.126C19 7.0386 19 8.1753 19 10.446V10.5513C19 12.8238 19 13.9605 18.4627 14.8731C17.9245 15.7866 16.9561 16.2951 15.0202 17.3112L13.2202 18.2553C11.6398 19.0851 10.8496 19.5 10 19.5C9.1504 19.5 8.3602 19.086 6.7798 18.2562L4.9798 17.3112C3.0439 16.2951 2.0755 15.7875 1.5373 14.874C1 13.9614 1 12.8247 1 10.554V10.4487C1 8.1762 1 7.0395 1.5373 6.1269C2.0755 5.2134 3.0439 4.7049 4.9798 3.6897L6.7798 2.7447C8.3602 1.9149 9.1504 1.5 10 1.5C10.8496 1.5 11.6398 1.914 13.2202 2.7438Z" stroke="black" stroke-width="1.5" stroke-linecap="round"/>
</svg>