<svg width="28" height="27" viewBox="0 0 28 27" fill="none" xmlns="http://www.w3.org/2000/svg">
<path d="M21.6299 26V16M21.6299 26H12.5581H11.8896M21.6299 26L26.3582 21.1456C26.4491 21.0522 26.5 20.9271 26.5 20.7967V11M21.6299 6V16M21.6299 6H12.2572M21.6299 6L26.5 1M21.6299 16H16.7597M21.6299 16L26.5 11M11.8896 26H2.14935H2C1.72386 26 1.5 25.7761 1.5 25.5V16M11.8896 26V11M26.5 1H16.9823C16.8406 1 16.7056 1.06012 16.6108 1.16541L12.0181 6.2656C11.9354 6.35742 11.8896 6.47661 11.8896 6.60018V11M26.5 1V11M16.7597 6.40823V9.33333M16.7597 16V19.3333M16.7597 16H7.01948M7.01948 16V19.3333M7.01948 16H2.14935H1.5M1.5 16L5.89667 11.1637C5.99143 11.0594 6.12577 11 6.26664 11H11.8896" stroke="black" stroke-width="1.5" stroke-linejoin="round"/>
</svg>
